# Blender 5.1.1
# www.blender.org
o aux_joint
v -0.212015 -3.000000 -2.490994
v 0.000000 -3.000000 -1.500000
v -0.260472 -3.000000 -1.477212
v 0.000000 -3.000000 -2.500000
v 0.212015 -3.000000 -2.490994
v 0.260472 -3.000000 -1.477212
v 0.629945 -3.000000 -2.419332
v 0.513030 -3.000000 -1.409539
v 1.029753 -3.000000 -2.278071
v 0.750000 -3.000000 -1.299038
v 1.399937 -3.000000 -2.071274
v 0.964181 -3.000000 -1.149067
v 1.729847 -3.000000 -1.804890
v 1.149067 -3.000000 -0.964181
v 2.009993 -3.000000 -1.486583
v 1.299038 -3.000000 -0.750000
v 2.232315 -3.000000 -1.125509
v 1.409539 -3.000000 -0.513030
v 2.390417 -3.000000 -0.732057
v 1.477212 -3.000000 -0.260472
v 2.479751 -3.000000 -0.317545
v 1.500000 -3.000000 0.000000
v 2.497747 -3.000000 0.106103
v 1.477212 -3.000000 0.260472
v 2.443888 -3.000000 0.526698
v 1.409539 -3.000000 0.513030
v 2.319723 -3.000000 0.932141
v 1.299038 -3.000000 0.750000
v 2.128823 -3.000000 1.310768
v 1.149067 -3.000000 0.964181
v 1.876681 -3.000000 1.651687
v 0.964181 -3.000000 1.149067
v 1.570550 -3.000000 1.945089
v 0.750000 -3.000000 1.299038
v 1.219237 -3.000000 2.182535
v 0.513030 -3.000000 1.409539
v 0.832850 -3.000000 2.357193
v 0.260472 -3.000000 1.477212
v 0.422502 -3.000000 2.464040
v 0.000000 -3.000000 1.500000
v 0.000000 -3.000000 2.500000
v -0.260472 -3.000000 1.477212
v -0.422502 -3.000000 2.464040
v -0.513030 -3.000000 1.409539
v -0.832850 -3.000000 2.357193
v -0.750000 -3.000000 1.299038
v -1.219237 -3.000000 2.182535
v -0.964181 -3.000000 1.149067
v -1.570550 -3.000000 1.945089
v -1.149067 -3.000000 0.964181
v -1.876681 -3.000000 1.651687
v -1.299038 -3.000000 0.750000
v -2.128823 -3.000000 1.310768
v -1.409539 -3.000000 0.513030
v -2.319723 -3.000000 0.932141
v -1.477212 -3.000000 0.260472
v -2.443888 -3.000000 0.526698
v -1.500000 -3.000000 0.000000
v -2.497747 -3.000000 0.106103
v -1.477212 -3.000000 -0.260472
v -2.479751 -3.000000 -0.317545
v -1.409539 -3.000000 -0.513030
v -2.390417 -3.000000 -0.732057
v -1.299038 -3.000000 -0.750000
v -2.232315 -3.000000 -1.125509
v -1.149067 -3.000000 -0.964181
v -2.009993 -3.000000 -1.486583
v -0.964181 -3.000000 -1.149067
v -1.729847 -3.000000 -1.804890
v -0.750000 -3.000000 -1.299038
v -1.399937 -3.000000 -2.071274
v -0.513030 -3.000000 -1.409539
v -1.029753 -3.000000 -2.278071
v -0.629945 -3.000000 -2.419332
v 0.212015 -0.000000 -2.490994
v 0.000000 -0.000000 -1.500000
v 0.260472 -0.000000 -1.477212
v 0.000000 -0.000000 -2.500000
v -0.212015 -0.000000 -2.490994
v -0.260472 -0.000000 -1.477212
v -0.629945 -0.000000 -2.419332
v -0.513030 -0.000000 -1.409539
v -1.029753 -0.000000 -2.278071
v -0.750000 -0.000000 -1.299038
v -1.399937 -0.000000 -2.071274
v -0.964181 -0.000000 -1.149067
v -1.729847 -0.000000 -1.804890
v -1.149067 -0.000000 -0.964181
v -2.009993 -0.000000 -1.486583
v -1.299038 -0.000000 -0.750000
v -2.232315 -0.000000 -1.125509
v -1.409539 -0.000000 -0.513030
v -2.390417 -0.000000 -0.732057
v -1.477212 -0.000000 -0.260472
v -2.479751 -0.000000 -0.317545
v -1.500000 -0.000000 -0.000000
v -2.497747 0.000000 0.106103
v -1.477212 0.000000 0.260472
v -2.443888 0.000000 0.526698
v -1.409539 0.000000 0.513030
v -2.319723 0.000000 0.932141
v -1.299038 0.000000 0.750000
v -2.128823 0.000000 1.310768
v -1.149067 0.000000 0.964181
v -1.876681 0.000000 1.651687
v -0.964181 0.000000 1.149067
v -1.570550 0.000000 1.945089
v -0.750000 0.000000 1.299038
v -1.219237 0.000000 2.182535
v -0.513030 0.000000 1.409539
v -0.832850 0.000000 2.357193
v -0.260472 0.000000 1.477212
v -0.422502 0.000000 2.464040
v 0.000000 0.000000 1.500000
v 0.000000 0.000000 2.500000
v 0.260472 0.000000 1.477212
v 0.422502 0.000000 2.464040
v 0.513030 0.000000 1.409539
v 0.832850 0.000000 2.357193
v 0.750000 0.000000 1.299038
v 1.219237 0.000000 2.182535
v 0.964181 0.000000 1.149067
v 1.570550 0.000000 1.945089
v 1.149067 0.000000 0.964181
v 1.876681 0.000000 1.651687
v 1.299038 0.000000 0.750000
v 2.128823 0.000000 1.310768
v 1.409539 0.000000 0.513030
v 2.319723 0.000000 0.932141
v 1.477212 0.000000 0.260472
v 2.443888 0.000000 0.526698
v 1.500000 0.000000 0.000000
v 2.497747 0.000000 0.106103
v 1.477212 -0.000000 -0.260472
v 2.479751 -0.000000 -0.317545
v 1.409539 -0.000000 -0.513030
v 2.390417 -0.000000 -0.732057
v 1.299038 -0.000000 -0.750000
v 2.232315 -0.000000 -1.125509
v 1.149067 -0.000000 -0.964181
v 2.009993 -0.000000 -1.486583
v 0.964181 -0.000000 -1.149067
v 1.729847 -0.000000 -1.804890
v 0.750000 -0.000000 -1.299038
v 1.399937 -0.000000 -2.071274
v 0.513030 -0.000000 -1.409539
v 1.029753 -0.000000 -2.278071
v 0.629945 -0.000000 -2.419332
v 0.000000 -3.000000 -2.500000
v 0.000000 -0.000000 -2.500000
v -0.000000 -3.000000 1.500000
v -0.000000 0.000000 1.500000
v 0.000000 -3.000000 -1.500000
vn -0.0000 -1.0000 -0.0000
vn -0.0000 1.0000 -0.0000
vn 0.0424 -0.0000 -0.9991
vn -0.0424 -0.0000 -0.9991
vn -0.1690 -0.0000 -0.9856
vn -0.3331 -0.0000 -0.9429
vn -0.4877 -0.0000 -0.8730
vn -0.6282 -0.0000 -0.7780
vn -0.7507 -0.0000 -0.6607
vn -0.8515 -0.0000 -0.5243
vn -0.9279 -0.0000 -0.3729
vn -0.9776 -0.0000 -0.2107
vn -0.9991 -0.0000 -0.0424
vn -0.9919 -0.0000 0.1270
vn -0.9562 -0.0000 0.2928
vn -0.8929 -0.0000 0.4502
vn -0.8040 -0.0000 0.5946
vn -0.6919 -0.0000 0.7220
vn -0.5600 -0.0000 0.8285
vn -0.4119 -0.0000 0.9112
vn -0.2520 -0.0000 0.9677
vn -0.0848 -0.0000 0.9964
vn 0.0848 -0.0000 0.9964
vn 0.2520 -0.0000 0.9677
vn 0.4119 -0.0000 0.9112
vn 0.5600 -0.0000 0.8285
vn 0.6919 -0.0000 0.7220
vn 0.8040 -0.0000 0.5946
vn 0.8929 -0.0000 0.4502
vn 0.9562 -0.0000 0.2928
vn 0.9919 -0.0000 0.1270
vn 0.9991 -0.0000 -0.0424
vn 0.9776 -0.0000 -0.2107
vn 0.9279 -0.0000 -0.3729
vn 0.8515 -0.0000 -0.5243
vn 0.7507 -0.0000 -0.6607
vn 0.6282 -0.0000 -0.7780
vn 0.4877 -0.0000 -0.8730
vn 0.3331 -0.0000 -0.9429
vn 0.1690 -0.0000 -0.9856
vn -0.0872 -0.0000 -0.9962
vn -0.2588 -0.0000 -0.9659
vn -0.4226 -0.0000 -0.9063
vn -0.5736 -0.0000 -0.8192
vn -0.7071 -0.0000 -0.7071
vn -0.8192 -0.0000 -0.5736
vn -0.9063 -0.0000 -0.4226
vn -0.9659 -0.0000 -0.2588
vn -0.9962 -0.0000 -0.0872
vn -0.9962 -0.0000 0.0872
vn -0.9659 -0.0000 0.2588
vn -0.9063 -0.0000 0.4226
vn -0.8192 -0.0000 0.5736
vn -0.7071 -0.0000 0.7071
vn -0.5736 -0.0000 0.8192
vn -0.4226 -0.0000 0.9063
vn -0.2588 -0.0000 0.9659
vn -0.0872 -0.0000 0.9962
vn 0.0872 -0.0000 0.9962
vn 0.2588 -0.0000 0.9659
vn 0.4226 -0.0000 0.9063
vn 0.5736 -0.0000 0.8192
vn 0.7071 -0.0000 0.7071
vn 0.8192 -0.0000 0.5736
vn 0.9063 -0.0000 0.4226
vn 0.9659 -0.0000 0.2588
vn 0.9962 -0.0000 0.0872
vn 0.9962 -0.0000 -0.0872
vn 0.9659 -0.0000 -0.2588
vn 0.9063 -0.0000 -0.4226
vn 0.8192 -0.0000 -0.5736
vn 0.7071 -0.0000 -0.7071
vn 0.5736 -0.0000 -0.8192
vn 0.4226 -0.0000 -0.9063
vn 0.2588 -0.0000 -0.9659
vn 0.0872 -0.0000 -0.9962
s 0
f 1//1 2//1 3//1
f 1//1 4//1 2//1
f 2//1 4//1 5//1
f 2//1 5//1 6//1
f 6//1 5//1 7//1
f 6//1 7//1 8//1
f 8//1 7//1 9//1
f 8//1 9//1 10//1
f 10//1 9//1 11//1
f 10//1 11//1 12//1
f 12//1 11//1 13//1
f 12//1 13//1 14//1
f 14//1 13//1 15//1
f 14//1 15//1 16//1
f 16//1 15//1 17//1
f 16//1 17//1 18//1
f 18//1 17//1 19//1
f 18//1 19//1 20//1
f 20//1 19//1 21//1
f 20//1 21//1 22//1
f 22//1 21//1 23//1
f 22//1 23//1 24//1
f 24//1 23//1 25//1
f 24//1 25//1 26//1
f 26//1 25//1 27//1
f 26//1 27//1 28//1
f 28//1 27//1 29//1
f 28//1 29//1 30//1
f 30//1 29//1 31//1
f 30//1 31//1 32//1
f 32//1 31//1 33//1
f 32//1 33//1 34//1
f 34//1 33//1 35//1
f 34//1 35//1 36//1
f 36//1 35//1 37//1
f 36//1 37//1 38//1
f 38//1 37//1 39//1
f 38//1 39//1 40//1
f 40//1 39//1 41//1
f 40//1 41//1 42//1
f 42//1 41//1 43//1
f 42//1 43//1 44//1
f 44//1 43//1 45//1
f 44//1 45//1 46//1
f 46//1 45//1 47//1
f 46//1 47//1 48//1
f 48//1 47//1 49//1
f 48//1 49//1 50//1
f 50//1 49//1 51//1
f 50//1 51//1 52//1
f 52//1 51//1 53//1
f 52//1 53//1 54//1
f 54//1 53//1 55//1
f 54//1 55//1 56//1
f 56//1 55//1 57//1
f 56//1 57//1 58//1
f 58//1 57//1 59//1
f 58//1 59//1 60//1
f 60//1 59//1 61//1
f 60//1 61//1 62//1
f 62//1 61//1 63//1
f 62//1 63//1 64//1
f 64//1 63//1 65//1
f 64//1 65//1 66//1
f 66//1 65//1 67//1
f 66//1 67//1 68//1
f 68//1 67//1 69//1
f 68//1 69//1 70//1
f 70//1 69//1 71//1
f 70//1 71//1 72//1
f 72//1 71//1 73//1
f 72//1 73//1 3//1
f 3//1 73//1 74//1
f 3//1 74//1 1//1
f 75//2 76//2 77//2
f 75//2 78//2 76//2
f 76//2 78//2 79//2
f 76//2 79//2 80//2
f 80//2 79//2 81//2
f 80//2 81//2 82//2
f 82//2 81//2 83//2
f 82//2 83//2 84//2
f 84//2 83//2 85//2
f 84//2 85//2 86//2
f 86//2 85//2 87//2
f 86//2 87//2 88//2
f 88//2 87//2 89//2
f 88//2 89//2 90//2
f 90//2 89//2 91//2
f 90//2 91//2 92//2
f 92//2 91//2 93//2
f 92//2 93//2 94//2
f 94//2 93//2 95//2
f 94//2 95//2 96//2
f 96//2 95//2 97//2
f 96//2 97//2 98//2
f 98//2 97//2 99//2
f 98//2 99//2 100//2
f 100//2 99//2 101//2
f 100//2 101//2 102//2
f 102//2 101//2 103//2
f 102//2 103//2 104//2
f 104//2 103//2 105//2
f 104//2 105//2 106//2
f 106//2 105//2 107//2
f 106//2 107//2 108//2
f 108//2 107//2 109//2
f 108//2 109//2 110//2
f 110//2 109//2 111//2
f 110//2 111//2 112//2
f 112//2 111//2 113//2
f 112//2 113//2 114//2
f 114//2 113//2 115//2
f 114//2 115//2 116//2
f 116//2 115//2 117//2
f 116//2 117//2 118//2
f 118//2 117//2 119//2
f 118//2 119//2 120//2
f 120//2 119//2 121//2
f 120//2 121//2 122//2
f 122//2 121//2 123//2
f 122//2 123//2 124//2
f 124//2 123//2 125//2
f 124//2 125//2 126//2
f 126//2 125//2 127//2
f 126//2 127//2 128//2
f 128//2 127//2 129//2
f 128//2 129//2 130//2
f 130//2 129//2 131//2
f 130//2 131//2 132//2
f 132//2 131//2 133//2
f 132//2 133//2 134//2
f 134//2 133//2 135//2
f 134//2 135//2 136//2
f 136//2 135//2 137//2
f 136//2 137//2 138//2
f 138//2 137//2 139//2
f 138//2 139//2 140//2
f 140//2 139//2 141//2
f 140//2 141//2 142//2
f 142//2 141//2 143//2
f 142//2 143//2 144//2
f 144//2 143//2 145//2
f 144//2 145//2 146//2
f 146//2 145//2 147//2
f 146//2 147//2 77//2
f 77//2 147//2 148//2
f 77//2 148//2 75//2
f 5//3 149//3 150//3
f 150//4 149//4 79//4
f 149//4 1//4 79//4
f 79//5 1//5 74//5
f 79//5 74//5 81//5
f 81//6 74//6 73//6
f 81//6 73//6 83//6
f 83//7 73//7 71//7
f 83//7 71//7 85//7
f 85//8 71//8 69//8
f 85//8 69//8 87//8
f 87//9 69//9 67//9
f 87//9 67//9 89//9
f 89//10 67//10 65//10
f 89//10 65//10 91//10
f 91//11 65//11 63//11
f 91//11 63//11 93//11
f 93//12 63//12 61//12
f 93//12 61//12 95//12
f 95//13 61//13 59//13
f 95//13 59//13 97//13
f 97//14 59//14 57//14
f 97//14 57//14 99//14
f 99//15 57//15 55//15
f 99//15 55//15 101//15
f 101//16 55//16 53//16
f 101//16 53//16 103//16
f 103//17 53//17 51//17
f 103//17 51//17 105//17
f 105//18 51//18 49//18
f 105//18 49//18 107//18
f 107//19 49//19 47//19
f 107//19 47//19 109//19
f 109//20 47//20 45//20
f 109//20 45//20 111//20
f 111//21 45//21 43//21
f 111//21 43//21 113//21
f 113//22 43//22 41//22
f 113//22 41//22 115//22
f 115//23 41//23 39//23
f 115//23 39//23 117//23
f 117//24 39//24 37//24
f 117//24 37//24 119//24
f 119//25 37//25 35//25
f 119//25 35//25 121//25
f 121//26 35//26 33//26
f 121//26 33//26 123//26
f 123//27 33//27 31//27
f 123//27 31//27 125//27
f 125//28 31//28 29//28
f 125//28 29//28 127//28
f 127//29 29//29 27//29
f 127//29 27//29 129//29
f 129//30 27//30 25//30
f 129//30 25//30 131//30
f 131//31 25//31 23//31
f 131//31 23//31 133//31
f 133//32 23//32 21//32
f 133//32 21//32 135//32
f 135//33 21//33 19//33
f 135//33 19//33 137//33
f 137//34 19//34 17//34
f 137//34 17//34 139//34
f 139//35 17//35 15//35
f 139//35 15//35 141//35
f 141//36 15//36 13//36
f 141//36 13//36 143//36
f 143//37 13//37 11//37
f 143//37 11//37 145//37
f 145//38 11//38 9//38
f 145//38 9//38 147//38
f 147//39 9//39 7//39
f 147//39 7//39 148//39
f 148//40 7//40 5//40
f 148//40 5//40 75//40
f 75//3 5//3 150//3
f 151//41 152//41 38//41
f 38//41 152//41 116//41
f 38//42 116//42 36//42
f 36//42 116//42 118//42
f 36//43 118//43 34//43
f 34//43 118//43 120//43
f 34//44 120//44 32//44
f 32//44 120//44 122//44
f 32//45 122//45 30//45
f 30//45 122//45 124//45
f 30//46 124//46 28//46
f 28//46 124//46 126//46
f 28//47 126//47 26//47
f 26//47 126//47 128//47
f 26//48 128//48 24//48
f 24//48 128//48 130//48
f 24//49 130//49 22//49
f 22//49 130//49 132//49
f 22//50 132//50 20//50
f 20//50 132//50 134//50
f 20//51 134//51 18//51
f 18//51 134//51 136//51
f 18//52 136//52 16//52
f 16//52 136//52 138//52
f 16//53 138//53 14//53
f 14//53 138//53 140//53
f 14//54 140//54 12//54
f 12//54 140//54 142//54
f 12//55 142//55 10//55
f 10//55 142//55 144//55
f 10//56 144//56 8//56
f 8//56 144//56 146//56
f 8//57 146//57 6//57
f 6//57 146//57 77//57
f 6//58 77//58 153//58
f 153//58 77//58 76//58
f 153//59 76//59 3//59
f 3//59 76//59 80//59
f 3//60 80//60 72//60
f 72//60 80//60 82//60
f 72//61 82//61 70//61
f 70//61 82//61 84//61
f 70//62 84//62 68//62
f 68//62 84//62 86//62
f 68//63 86//63 66//63
f 66//63 86//63 88//63
f 66//64 88//64 64//64
f 64//64 88//64 90//64
f 64//65 90//65 62//65
f 62//65 90//65 92//65
f 62//66 92//66 60//66
f 60//66 92//66 94//66
f 60//67 94//67 58//67
f 58//67 94//67 96//67
f 58//68 96//68 56//68
f 56//68 96//68 98//68
f 56//69 98//69 54//69
f 54//69 98//69 100//69
f 54//70 100//70 52//70
f 52//70 100//70 102//70
f 52//71 102//71 50//71
f 50//71 102//71 104//71
f 50//72 104//72 48//72
f 48//72 104//72 106//72
f 48//73 106//73 46//73
f 46//73 106//73 108//73
f 46//74 108//74 44//74
f 44//74 108//74 110//74
f 44//75 110//75 42//75
f 42//75 110//75 112//75
f 42//76 112//76 151//76
f 151//76 112//76 152//76
