# Blender 5.1.1
# www.blender.org
o wall_60deg
v 438.675140 -1500.000000 250.000000
v 438.675140 -1500.000000 -250.000000
v 438.675140 500.000000 250.000000
v 438.675140 500.000000 -250.000000
v -866.025330 -1500.000000 250.000000
v -866.025330 -1500.000000 -250.000000
v 288.675140 500.000000 250.000000
v 288.675140 500.000000 -250.000000
vn 1.0000 -0.0000 -0.0000
vn -0.0000 -1.0000 -0.0000
vn -0.8660 0.5000 -0.0000
vn -0.0000 1.0000 -0.0000
vn -0.0000 -0.0000 -1.0000
vn -0.0000 -0.0000 1.0000
s 0
f 1//1 2//1 3//1
f 3//1 2//1 4//1
f 5//2 6//2 1//2
f 1//2 6//2 2//2
f 7//3 8//3 5//3
f 5//3 8//3 6//3
f 3//4 4//4 7//4
f 7//4 4//4 8//4
f 6//5 8//5 2//5
f 2//5 8//5 4//5
f 7//6 5//6 3//6
f 3//6 5//6 1//6
